<svg data-v-423bf9ae="" xmlns="http://www.w3.org/2000/svg" viewBox="0 0 695 90" class="iconLeft"><!----><!----><!----><g data-v-423bf9ae="" id="8ea5be6a-7955-4b15-adbf-e786b5ecbfb7" fill="#2F2849" transform="matrix(6.08519290965367,0,0,6.08519290965367,96.0636621062144,8.914806613509171)"><path d="M2.43 10.64L1.58 10.64L1.58 1.24L2.43 1.24L2.43 10.64ZM15.54 10.64L14.69 10.64L14.69 4.44L14.69 4.44Q14.69 3.66 14.48 3.15L14.48 3.15L14.48 3.15Q14.27 2.65 13.89 2.36L13.89 2.36L13.89 2.36Q13.50 2.06 12.95 1.95L12.95 1.95L12.95 1.95Q12.39 1.83 11.70 1.83L11.70 1.83L11.70 1.83Q10.90 1.83 10.13 2.03L10.13 2.03L10.13 2.03Q9.37 2.22 8.68 2.52L8.68 2.52L8.68 2.52Q8.00 2.82 7.42 3.18L7.42 3.18L7.42 3.18Q6.85 3.54 6.45 3.88L6.45 3.88L6.45 10.64L5.60 10.64L5.60 1.24L6.45 1.24L6.45 2.89L6.45 2.89Q6.93 2.59 7.51 2.26L7.51 2.26L7.51 2.26Q8.09 1.93 8.75 1.65L8.75 1.65L8.75 1.65Q9.42 1.37 10.18 1.20L10.18 1.20L10.18 1.20Q10.94 1.02 11.78 1.02L11.78 1.02L11.78 1.02Q12.73 1.02 13.44 1.25L13.44 1.25L13.44 1.25Q14.14 1.48 14.61 1.90L14.61 1.90L14.61 1.90Q15.08 2.32 15.31 2.92L15.31 2.92L15.31 2.92Q15.54 3.51 15.54 4.25L15.54 4.25L15.54 10.64ZM26.74 2.02L22.47 2.02L22.47 10.64L21.62 10.64L21.62 2.02L17.35 2.02L17.35 1.24L26.74 1.24L26.74 2.02ZM37.78 9.15L37.78 10.14L37.78 10.14Q37.20 10.32 36.71 10.45L36.71 10.45L36.71 10.45Q36.22 10.58 35.74 10.65L35.74 10.65L35.74 10.65Q35.26 10.73 34.76 10.77L34.76 10.77L34.76 10.77Q34.27 10.81 33.67 10.81L33.67 10.81L33.67 10.81Q32.29 10.81 31.18 10.47L31.18 10.47L31.18 10.47Q30.06 10.14 29.28 9.51L29.28 9.51L29.28 9.51Q28.50 8.89 28.08 8.00L28.08 8.00L28.08 8.00Q27.65 7.11 27.65 6.00L27.65 6.00L27.65 6.00Q27.65 4.93 28.06 4.03L28.06 4.03L28.06 4.03Q28.46 3.14 29.20 2.50L29.20 2.50L29.20 2.50Q29.93 1.85 30.95 1.50L30.95 1.50L30.95 1.50Q31.96 1.14 33.20 1.14L33.20 1.14L33.20 1.14Q34.47 1.14 35.47 1.48L35.47 1.48L35.47 1.48Q36.47 1.83 37.15 2.46L37.15 2.46L37.15 2.46Q37.84 3.10 38.19 4.00L38.19 4.00L38.19 4.00Q38.55 4.91 38.55 6.04L38.55 6.04L38.55 6.25L28.53 6.25L28.53 6.25Q28.61 7.13 28.97 7.83L28.97 7.83L28.97 7.83Q29.33 8.54 30.00 9.03L30.00 9.03L30.00 9.03Q30.67 9.52 31.64 9.79L31.64 9.79L31.64 9.79Q32.61 10.05 33.91 10.05L33.91 10.05L33.91 10.05Q34.47 10.05 35.03 9.97L35.03 9.97L35.03 9.97Q35.60 9.90 36.12 9.77L36.12 9.77L36.12 9.77Q36.64 9.65 37.07 9.48L37.07 9.48L37.07 9.48Q37.50 9.32 37.78 9.15L37.78 9.15ZM28.53 5.51L37.71 5.51L37.71 5.51Q37.66 4.79 37.39 4.14L37.39 4.14L37.39 4.14Q37.11 3.49 36.57 2.99L36.57 2.99L36.57 2.99Q36.03 2.49 35.19 2.19L35.19 2.19L35.19 2.19Q34.35 1.90 33.18 1.90L33.18 1.90L33.18 1.90Q32.08 1.90 31.25 2.19L31.25 2.19L31.25 2.19Q30.43 2.49 29.85 2.98L29.85 2.98L29.85 2.98Q29.28 3.48 28.95 4.13L28.95 4.13L28.95 4.13Q28.62 4.79 28.53 5.51L28.53 5.51ZM48.01 1.97L48.01 1.97L48.01 1.97Q47.81 1.91 47.46 1.84L47.46 1.84L47.46 1.84Q47.11 1.76 46.55 1.76L46.55 1.76L46.55 1.76Q45.79 1.76 45.11 1.95L45.11 1.95L45.11 1.95Q44.44 2.14 43.86 2.46L43.86 2.46L43.86 2.46Q43.29 2.78 42.79 3.21L42.79 3.21L42.79 3.21Q42.30 3.64 41.90 4.12L41.90 4.12L41.90 10.64L41.05 10.64L41.05 1.24L41.90 1.24L41.90 3.16L41.90 3.16Q42.36 2.69 42.90 2.29L42.90 2.29L42.90 2.29Q43.44 1.89 44.03 1.61L44.03 1.61L44.03 1.61Q44.63 1.33 45.28 1.17L45.28 1.17L45.28 1.17Q45.93 1.00 46.63 1.00L46.63 1.00L46.63 1.00Q46.87 1.00 47.06 1.02L47.06 1.02L47.06 1.02Q47.25 1.03 47.41 1.04L47.41 1.04L47.41 1.04Q47.57 1.06 47.71 1.08L47.71 1.08L47.71 1.08Q47.86 1.10 48.01 1.13L48.01 1.13L48.01 1.97ZM59.53 10.64L58.68 10.64L58.68 4.44L58.68 4.44Q58.68 3.66 58.47 3.15L58.47 3.15L58.47 3.15Q58.26 2.65 57.88 2.36L57.88 2.36L57.88 2.36Q57.49 2.06 56.94 1.95L56.94 1.95L56.94 1.95Q56.38 1.83 55.69 1.83L55.69 1.83L55.69 1.83Q54.89 1.83 54.12 2.03L54.12 2.03L54.12 2.03Q53.35 2.22 52.67 2.52L52.67 2.52L52.67 2.52Q51.99 2.82 51.41 3.18L51.41 3.18L51.41 3.18Q50.84 3.54 50.44 3.88L50.44 3.88L50.44 10.64L49.59 10.64L49.59 1.24L50.44 1.24L50.44 2.89L50.44 2.89Q50.92 2.59 51.50 2.26L51.50 2.26L51.50 2.26Q52.08 1.93 52.74 1.65L52.74 1.65L52.74 1.65Q53.41 1.37 54.17 1.20L54.17 1.20L54.17 1.20Q54.93 1.02 55.77 1.02L55.77 1.02L55.77 1.02Q56.72 1.02 57.43 1.25L57.43 1.25L57.43 1.25Q58.13 1.48 58.60 1.90L58.60 1.90L58.60 1.90Q59.07 2.32 59.30 2.92L59.30 2.92L59.30 2.92Q59.53 3.51 59.53 4.25L59.53 4.25L59.53 10.64ZM72.78 10.64L71.92 10.64L71.92 6.08L63.51 6.08L63.51 10.64L62.65 10.64L62.65 1.24L63.51 1.24L63.51 5.29L71.92 5.29L71.92 1.24L72.78 1.24L72.78 10.64ZM75.90 1.24L76.77 1.24L76.77 7.44L76.77 7.44Q76.76 8.23 76.97 8.74L76.97 8.74L76.97 8.74Q77.17 9.24 77.56 9.53L77.56 9.53L77.56 9.53Q77.94 9.82 78.49 9.94L78.49 9.94L78.49 9.94Q79.04 10.05 79.73 10.05L79.73 10.05L79.73 10.05Q80.53 10.05 81.30 9.85L81.30 9.85L81.30 9.85Q82.07 9.66 82.74 9.36L82.74 9.36L82.74 9.36Q83.42 9.06 83.98 8.70L83.98 8.70L83.98 8.70Q84.55 8.34 84.94 8.00L84.94 8.00L84.94 1.24L85.81 1.24L85.81 10.64L84.94 10.64L84.94 8.98L84.94 8.98Q84.46 9.29 83.90 9.62L83.90 9.62L83.90 9.62Q83.33 9.95 82.67 10.23L82.67 10.23L82.67 10.23Q82.01 10.51 81.26 10.68L81.26 10.68L81.26 10.68Q80.51 10.86 79.67 10.86L79.67 10.86L79.67 10.86Q78.72 10.86 78.01 10.62L78.01 10.62L78.01 10.62Q77.30 10.38 76.83 9.95L76.83 9.95L76.83 9.95Q76.36 9.52 76.13 8.93L76.13 8.93L76.13 8.93Q75.90 8.34 75.90 7.63L75.90 7.63L75.90 1.24ZM98.29 8.05L98.29 8.05L98.29 8.05Q98.29 8.59 98.14 9.00L98.14 9.00L98.14 9.00Q98 9.40 97.74 9.69L97.74 9.69L97.74 9.69Q97.49 9.98 97.13 10.16L97.13 10.16L97.13 10.16Q96.77 10.34 96.34 10.45L96.34 10.45L96.34 10.45Q95.91 10.55 95.42 10.60L95.42 10.60L95.42 10.60Q94.92 10.64 94.40 10.64L94.40 10.64L88.98 10.64L88.98 1.24L94.27 1.24L94.27 1.24Q94.68 1.24 95.08 1.28L95.08 1.28L95.08 1.28Q95.48 1.31 95.86 1.40L95.86 1.40L95.86 1.40Q96.23 1.50 96.55 1.66L96.55 1.66L96.55 1.66Q96.87 1.83 97.10 2.09L97.10 2.09L97.10 2.09Q97.34 2.36 97.47 2.73L97.47 2.73L97.47 2.73Q97.60 3.11 97.60 3.62L97.60 3.62L97.60 3.62Q97.60 4.08 97.49 4.42L97.49 4.42L97.49 4.42Q97.38 4.75 97.15 4.99L97.15 4.99L97.15 4.99Q96.92 5.23 96.56 5.38L96.56 5.38L96.56 5.38Q96.21 5.54 95.73 5.63L95.73 5.63L95.73 5.63Q96.41 5.67 96.90 5.86L96.90 5.86L96.90 5.86Q97.38 6.04 97.69 6.35L97.69 6.35L97.69 6.35Q98 6.66 98.14 7.09L98.14 7.09L98.14 7.09Q98.29 7.51 98.29 8.05ZM96.80 3.64L96.80 3.64L96.80 3.64Q96.80 3.44 96.78 3.24L96.78 3.24L96.78 3.24Q96.75 3.04 96.65 2.86L96.65 2.86L96.65 2.86Q96.56 2.68 96.38 2.52L96.38 2.52L96.38 2.52Q96.20 2.37 95.88 2.25L95.88 2.25L95.88 2.25Q95.57 2.14 95.10 2.07L95.10 2.07L95.10 2.07Q94.64 2.01 93.99 2.01L93.99 2.01L89.83 2.01L89.83 5.29L93.99 5.29L93.99 5.29Q94.92 5.29 95.47 5.16L95.47 5.16L95.47 5.16Q96.02 5.02 96.32 4.80L96.32 4.80L96.32 4.80Q96.62 4.57 96.71 4.27L96.71 4.27L96.71 4.27Q96.80 3.97 96.80 3.64ZM97.39 8.03L97.39 8.03L97.39 8.03Q97.39 7.50 97.21 7.12L97.21 7.12L97.21 7.12Q97.02 6.75 96.64 6.51L96.64 6.51L96.64 6.51Q96.26 6.27 95.66 6.16L95.66 6.16L95.66 6.16Q95.05 6.04 94.23 6.04L94.23 6.04L89.83 6.04L89.83 9.86L94.34 9.86L94.34 9.86Q95.20 9.86 95.78 9.77L95.78 9.77L95.78 9.77Q96.37 9.67 96.73 9.44L96.73 9.44L96.73 9.44Q97.08 9.22 97.24 8.87L97.24 8.87L97.24 8.87Q97.39 8.52 97.39 8.03Z"></path></g><defs data-v-423bf9ae=""><linearGradient data-v-423bf9ae="" gradientTransform="rotate(25)" id="db452f75-5a09-451e-9422-5bfad5774490" x1="0%" y1="0%" x2="100%" y2="0%"><stop data-v-423bf9ae="" offset="0%" style="stop-color: rgb(233, 142, 13); stop-opacity: 1;"></stop><stop data-v-423bf9ae="" offset="100%" style="stop-color: rgb(21, 54, 241); stop-opacity: 1;"></stop></linearGradient></defs><g data-v-423bf9ae="" id="ba4004ed-a6fc-4026-b201-81c1c55cceeb" transform="matrix(1.0804321332867082,0,0,1.0804321332867082,-10.683673132937017,-9.764105266223723)" stroke="none" fill="url(#db452f75-5a09-451e-9422-5bfad5774490)"><path d="M50 17.4c5.7 0 10.6 3.2 13.1 8l1.8-1v11.4c0 2.7 2.2 4.8 4.8 4.8h.4V38H70c-1.3 0-2.4-1.1-2.4-2.4V22.9l4.3-2.3L50 9.5 28.1 21.1l8.7 4.5c2.5-4.9 7.4-8.2 13.2-8.2z"></path><path d="M50 19.9c-6.8 0-12.4 5.6-12.4 12.5S43.1 44.9 50 44.9c6.8 0 12.4-5.6 12.4-12.5S56.8 19.9 50 19.9zM88.3 78.1L70.1 52.8s-2.4-4.6-8-4.8H38c-5.7.2-8 4.8-8 4.8L11.7 78.1c-.8 1.1-1.2 2.5-1.2 4 0 3.9 3.2 7.1 7.1 7.1h9.9V91c0 1 .8 1.8 1.8 1.8H71c1 0 1.8-.8 1.8-1.8v-1.8h9.9c3.9 0 7.1-3.2 7.1-7.1-.3-1.5-.7-2.9-1.5-4zM72.6 89H27.4V61.8c0-1.2 1-2.1 2.1-2.1h41c1.2 0 2.1 1 2.1 2.1V89z"></path><path d="M50 70c-2.6 0-4.8 2.1-4.8 4.8 0 2.7 2.1 4.8 4.8 4.8 2.6 0 4.8-2.2 4.8-4.8 0-2.6-2.2-4.8-4.8-4.8z"></path></g><!----></svg>